<?xml version="1.0" standalone="no"?>
<!DOCTYPE svg PUBLIC "-//W3C//DTD SVG 20010904//EN"
 "http://www.w3.org/TR/2001/REC-SVG-20010904/DTD/svg10.dtd">
<svg version="1.0" xmlns="http://www.w3.org/2000/svg"
 width="260.000000pt" height="260.000000pt" viewBox="0 0 260.000000 260.000000"
 preserveAspectRatio="xMidYMid meet">
<metadata>
Created by potrace 1.11, written by Peter Selinger 2001-2013
</metadata>
<g transform="translate(0.000000,260.000000) scale(0.100000,-0.100000)"
fill="#000000" stroke="none">
<path d="M0 1300 l0 -1300 1300 0 1300 0 0 1300 0 1300 -1300 0 -1300 0 0
-1300z m747 876 c255 -104 445 -296 529 -534 l22 -64 17 54 c71 214 234 396
458 508 98 50 203 87 214 76 3 -3 0 -25 -7 -48 -18 -64 -24 -378 -11 -510 7
-62 21 -169 32 -237 l21 -124 -28 -66 c-37 -90 -134 -279 -150 -292 -10 -9
-12 3 -8 58 7 82 1 120 -70 423 -30 129 -59 261 -66 293 -7 33 -17 57 -24 57
-7 0 -42 -14 -77 -32 -63 -31 -205 -161 -275 -251 l-29 -38 -45 62 c-64 88
-181 193 -255 230 -36 17 -70 29 -77 26 -7 -2 -21 -44 -31 -93 -10 -49 -43
-193 -73 -321 -46 -197 -54 -246 -54 -330 l0 -98 -21 30 c-28 42 -96 176 -134
266 l-32 76 23 139 c52 324 55 611 7 768 -5 17 -1 18 27 12 18 -3 71 -22 117
-40z m1317 -1226 c-13 -151 -63 -258 -168 -358 -76 -72 -169 -126 -276 -161
-81 -26 -201 -51 -243 -51 -28 1 -23 5 48 43 149 78 263 180 327 295 22 39 51
71 92 102 65 48 151 148 188 218 l23 42 7 -32 c4 -18 5 -62 2 -98z m-1443 11
c54 -74 117 -136 169 -167 14 -9 40 -42 58 -74 64 -116 176 -218 327 -297 71
-38 76 -42 48 -43 -84 0 -270 53 -378 109 -80 41 -194 144 -232 208 -57 97
-91 250 -77 338 6 35 8 38 18 21 6 -10 36 -53 67 -95z"/>
</g>
</svg>
